<?xml version="1.0" encoding="UTF-8"?>
<svg width="20px" height="20px" viewBox="0 0 20 20" version="1.1" xmlns="http://www.w3.org/2000/svg" xmlns:xlink="http://www.w3.org/1999/xlink">
    <!-- Generator: Sketch 52.5 (67469) - http://www.bohemiancoding.com/sketch -->
    <title>支付宝</title>
    <desc>Created with Sketch.</desc>
    <g id="页面-1" stroke="none" stroke-width="1" fill="none" fill-rule="evenodd">
        <g id="工作台——待费用确认" transform="translate(-442.000000, -215.000000)">
            <g id="支付宝" transform="translate(442.000000, 215.000000)">
                <g id="分组">
                    <rect id="矩形" fill="#000000" opacity="0" x="0" y="0" width="20" height="19.4900154"></rect>
                    <path d="M4.5,11.2954593 C4.26,11.4806144 4.01,11.7534747 3.94,12.0945499 C3.84,12.5623103 3.92,13.1470108 4.38,13.6147711 C4.94,14.1702366 5.8,14.3261567 6.17,14.3553917 C7.17,14.4236068 8.24,13.9363564 9.05,13.3906359 C9.37,13.1762458 9.91,12.7377204 10.42,12.0653149 C9.26,11.4806144 7.81,10.8374439 6.27,10.895914 C5.48,10.925149 4.91,11.0810691 4.5,11.2954593 Z M19.2,13.8778863 C19.71,12.7084854 20,11.4221444 20,10.0675883 C20,4.69808909 15.51,0.322580645 10,0.322580645 C4.49,0.322580645 0,4.69808909 0,10.0675883 C0,15.4370876 4.49,19.812596 10,19.812596 C13.33,19.812596 16.28,18.2144147 18.1,15.7781628 C16.38,14.9498372 13.55,13.5757911 11.8,12.7474654 C10.97,13.6732412 9.74,14.5990169 8.35,14.9985622 C7.48,15.2519324 6.69,15.3493825 5.87,15.1837174 C5.05,15.0180522 4.45,14.6477419 4.1,14.2774316 C3.92,14.0825315 3.72,13.8486513 3.57,13.5563011 C3.58,13.5757911 3.59,13.5952811 3.59,13.6147711 C3.59,13.6147711 3.5,13.468596 3.44,13.2444608 C3.41,13.1275207 3.38,13.0203257 3.37,12.9033856 C3.36,12.8254255 3.36,12.7377204 3.37,12.6597604 C3.36,12.5135853 3.37,12.3576651 3.4,12.201745 C3.48,11.8119447 3.65,11.3636743 4.09,10.954384 C5.05,10.0383533 6.33,9.98962826 7,9.99937327 C7.98,10.0091183 9.7,10.4281536 11.14,10.925149 C11.54,10.0968233 11.8,9.21002765 11.96,8.61558218 L5.96,8.61558218 L5.96,7.98215668 L9.04,7.98215668 L9.04,6.71530568 L5.32,6.71530568 L5.32,6.07213518 L9.04,6.07213518 L9.04,4.80528418 C9.04,4.62987404 9.08,4.49344393 9.36,4.49344393 L10.82,4.49344393 L10.82,6.07213518 L14.87,6.07213518 L14.87,6.70556068 L10.82,6.70556068 L10.82,7.97241167 L14.06,7.97241167 C14.06,7.97241167 13.73,9.73625806 12.72,11.4806144 C14.97,12.2602151 18.15,13.468596 19.2,13.8778863 Z" id="形状" fill="#06B4FD" fill-rule="nonzero"></path>
                </g>
            </g>
        </g>
    </g>
</svg>