<?xml version="1.0" encoding="UTF-8"?>
<svg width="134px" height="112px" viewBox="0 0 134 112" version="1.1" xmlns="http://www.w3.org/2000/svg" xmlns:xlink="http://www.w3.org/1999/xlink">
    <!-- Generator: Sketch 63.1 (92452) - https://sketch.com -->
    <title>图片</title>
    <desc>Created with Sketch.</desc>
    <g id="页面-1" stroke="none" stroke-width="1" fill="none" fill-rule="evenodd">
        <g id="询价" transform="translate(-31.000000, -290.000000)" fill="#F0F0F0" fill-rule="nonzero">
            <g id="编组-2" transform="translate(16.000000, 266.000000)">
                <g id="vvvv">
                    <g id="timg" transform="translate(15.000000, 23.946667)">
                        <g id="图片" transform="translate(0.000000, 0.053333)">
                            <path d="M128,0 C131.313708,-6.08718376e-16 134,2.6862915 134,6 L134,106 C134,109.313708 131.313708,112 128,112 L6,112 C2.6862915,112 4.05812251e-16,109.313708 0,106 L0,6 C-4.05812251e-16,2.6862915 2.6862915,6.08718376e-16 6,0 L128,0 Z M84.0427105,39.4354486 C82.2202456,36.1881838 77.6322961,36.1881838 75.8098312,39.4354486 L75.8098312,39.4354486 L60.0645821,67.4849117 L51.9588516,56.9987278 C50.0622166,54.5497939 46.406691,54.5497939 44.5100561,56.9987278 L44.5100561,56.9987278 L25.0245156,82.1893033 C22.5769028,85.3502621 24.7914096,90 28.7436155,90 L28.7436155,90 L104.24876,90 C107.89369,90 110.171771,85.9975574 108.370498,82.7826574 L108.370498,82.7826574 Z M34.5,28 C30.9069767,28 28,30.9069767 28,34.5 C28,38.0930233 30.9069767,41 34.5,41 C38.0930233,41 41,38.0930233 41,34.5 C41,30.9069767 38.0930233,28 34.5,28 Z" id="形状"></path>
                        </g>
                    </g>
                </g>
            </g>
        </g>
    </g>
</svg>