<?xml version="1.0" encoding="UTF-8"?>
<svg width="160px" height="120px" viewBox="0 0 160 120" version="1.1" xmlns="http://www.w3.org/2000/svg" xmlns:xlink="http://www.w3.org/1999/xlink">
    <!-- Generator: Sketch 63.1 (92452) - https://sketch.com -->
    <title>编组 5</title>
    <desc>Created with Sketch.</desc>
    <g id="页面-1" stroke="none" stroke-width="1" fill="none" fill-rule="evenodd">
        <g id="编组-5" fill-rule="nonzero">
            <rect id="形状备份" fill="#F0F0F0" x="0" y="0" width="160" height="120" rx="6"></rect>
            <path d="M49.9552239,33.1940299 C49.9552239,37.4842069 46.4842069,40.9552239 42.1940299,40.9552239 C37.9038528,40.9552239 34.4328358,37.4842069 34.4328358,33.1940299 C34.4328358,28.9038528 37.9038528,25.4328358 42.1940299,25.4328358 C46.4842069,25.4328358 49.9552239,28.9038528 49.9552239,33.1940299 Z" id="路径" fill="#FFFFFF"></path>
            <path d="M34.6640185,99.2835821 C29.9449667,99.2835821 27.3007795,93.7316562 30.2233022,89.9573771 L53.4896192,59.879078 C55.754258,56.9549778 60.1190646,56.9549778 62.3837034,59.879078 L72.0621876,72.3998946 L90.8624851,38.9079983 C93.0385626,35.0306672 98.5167111,35.0306672 100.692789,38.9079983 L129.740893,90.6658595 C131.891667,94.5045461 129.17157,99.2835821 124.819415,99.2835821 L34.6640185,99.2835821 Z" id="路径" fill="#FFFFFF"></path>
        </g>
    </g>
</svg>