<?xml version="1.0" encoding="UTF-8"?>
<svg width="22px" height="22px" viewBox="0 0 22 22" version="1.1" xmlns="http://www.w3.org/2000/svg" xmlns:xlink="http://www.w3.org/1999/xlink">
    <!-- Generator: Sketch 52.5 (67469) - http://www.bohemiancoding.com/sketch -->
    <title>勾选</title>
    <desc>Created with Sketch.</desc>
    <g id="页面-1" stroke="none" stroke-width="1" fill="none" fill-rule="evenodd">
        <g id="工作台——待费用确认" transform="translate(-570.000000, -233.000000)">
            <g id="勾选" transform="translate(568.000000, 231.000000)">
                <rect id="矩形" fill-rule="nonzero" x="0" y="0" width="24" height="24"></rect>
                <path d="M24,2.46191881 L24,20 C24,22.209139 22.209139,24 20,24 L2.46191881,24 L24,2.46191881 Z" id="矩形" fill="#2556F2" fill-rule="nonzero"></path>
                <g transform="translate(12.000000, 13.000000)" id="分组">
                    <g>
                        <rect id="矩形" fill="#000000" opacity="0" x="0" y="0" width="10" height="10"></rect>
                        <path d="M1.15100792,4.68335984 C0.954669905,4.88939958 0.949084555,5.22160296 1.13837421,5.43478286 L3.43266194,7.84176872 C3.63395321,8.05274376 3.96004539,8.05274376 4.16133665,7.84176872 L8.86162579,2.90989276 C9.05091544,2.69671286 9.04533009,2.36450948 8.84899208,2.15846974 C8.65265406,1.95242999 8.33609304,1.94656865 8.13295107,2.14521175 L3.7969993,6.69402582 L1.86704893,4.66938046 C1.66390696,4.47145875 1.34734594,4.47732009 1.15100792,4.68335984 Z" id="路径" fill="#FFFFFF"></path>
                    </g>
                </g>
            </g>
        </g>
    </g>
</svg>