<?xml version="1.0" encoding="UTF-8"?>
<svg width="20px" height="20px" viewBox="0 0 20 20" version="1.1" xmlns="http://www.w3.org/2000/svg" xmlns:xlink="http://www.w3.org/1999/xlink">
    <!-- Generator: Sketch 52.5 (67469) - http://www.bohemiancoding.com/sketch -->
    <title>WeChat微信</title>
    <desc>Created with Sketch.</desc>
    <g id="页面-1" stroke="none" stroke-width="1" fill="none" fill-rule="evenodd">
        <g id="工作台——待费用确认" transform="translate(-662.000000, -215.000000)">
            <g id="WeChat微信" transform="translate(662.000000, 215.000000)">
                <g id="分组">
                    <rect id="矩形" fill="#000000" opacity="0" x="0.18735363" y="0" width="19.4847775" height="20"></rect>
                    <path d="M10.0702576,20 C4.68968131,20 0.327868852,15.5228512 0.327868852,10 C0.327868852,4.47714885 4.68968131,0 10.0702576,0 C15.4508339,0 19.8126464,4.47714885 19.8126464,10 C19.8126464,15.5228512 15.4508339,20 10.0702576,20 Z M15.854806,11.4401258 C15.854806,9.79280922 14.2520095,8.45138365 12.4489119,8.45138365 C10.5385663,8.45138365 9.03844264,9.79280924 9.03844264,11.4401258 C9.03844264,13.0916562 10.5385663,14.4283857 12.4488914,14.4283857 C12.8485336,14.4283857 13.2527304,14.3236268 13.6520867,14.2235639 L14.7530787,14.8437526 L14.4518204,13.812914 C15.2551283,13.1924738 15.8548061,12.3667086 15.854806,11.4401258 Z M11.3426095,10.9244654 C11.1432888,10.9244654 10.9434779,10.719392 10.9434779,10.5135639 C10.9434779,10.3089728 11.1432888,10.1033962 11.3426095,10.1033962 C11.6448686,10.1033962 11.8449042,10.3089728 11.8449042,10.5135639 C11.8449042,10.719392 11.6448686,10.9244654 11.3426095,10.9244654 Z M13.550149,10.9244654 C13.3505832,10.9244654 13.1512625,10.719392 13.1512625,10.5135639 C13.1512625,10.3089728 13.3505832,10.1033962 13.550149,10.1033962 C13.8518975,10.1033962 14.0519535,10.3089728 14.0519535,10.5135639 C14.0519535,10.719392 13.8470978,10.9244654 13.5501286,10.9244654 L13.550149,10.9244654 Z M12.1179974,8.08729561 C12.2493257,8.08729561 12.3811849,8.09670859 12.5123089,8.11056604 C12.1589686,6.41396227 10.3951469,5.15626834 8.38092331,5.15626834 C6.13147314,5.15626834 4.28570917,6.73123689 4.28570919,8.73496855 C4.28570919,9.89090146 4.89815211,10.8412579 5.92298195,11.5778407 L5.51492495,12.8449686 L6.9478118,12.1044025 C7.46021652,12.2067086 7.87284855,12.3141929 8.38092331,12.3141929 C8.50771734,12.3141929 8.63520578,12.3094969 8.7622449,12.2961216 C8.6805273,12.0159958 8.63520578,11.7185325 8.63520578,11.4151153 C8.63496068,9.57857443 10.1726855,8.08729561 12.117977,8.08729561 L12.1179974,8.08729561 Z M9.91360327,6.94549266 C10.2218672,6.94549266 10.4257629,7.15528301 10.4257629,7.47230607 C10.4257629,7.78884695 10.2216221,7.99861635 9.91358284,7.99861635 C9.60507387,7.99861635 9.29705506,7.78884695 9.29705508,7.47230607 C9.30163012,7.15503145 9.60942424,6.9454717 9.91358284,6.9454717 L9.91360327,6.94549266 Z M7.04758447,7.9981132 C6.7390755,7.9981132 6.4310567,7.78859539 6.43105672,7.47180293 C6.43105672,7.15477986 6.7393206,6.94524109 7.04758447,6.94524109 C7.35633855,6.94524109 7.56047938,7.15503145 7.56047938,7.47180293 C7.56025472,7.78412998 7.35633855,7.99813416 7.04758447,7.99813418 L7.04758447,7.9981132 Z" id="形状" fill="#07C160" fill-rule="nonzero"></path>
                </g>
            </g>
        </g>
    </g>
</svg>